<svg xmlns="http://www.w3.org/2000/svg">
  <symbol id="flip-horizontal" width="24" height="24" viewBox="0 0 24 24" fill="none">
    <path opacity="0.3" fill-rule="evenodd" clip-rule="evenodd" d="M3.27427 18.3143C3.14289 18.6428 3.38477 19 3.73851 19H8.49999C8.77613 19 8.99999 18.7762 8.99999 18.5V6.59631C8.99999 6.04578 8.24021 5.89947 8.03575 6.41062L3.27427 18.3143Z" fill="#99EFD0"/>
    <path fill-rule="evenodd" clip-rule="evenodd" d="M20.7257 18.3143C20.8571 18.6427 20.6152 19 20.2615 19H15.5C15.2239 19 15 18.7761 15 18.5V6.59629C15 6.04576 15.7598 5.89944 15.9642 6.4106L20.7257 18.3143Z" fill="#99EFD0"/>
    <rect opacity="0.3" x="11" y="2" width="2" height="20" rx="1" fill="#99EFD0"/>
  </symbol>

  <symbol id="airpods" width="24" height="24" viewBox="0 0 24 24" fill="none">
    <path opacity="0.3" fill-rule="evenodd" clip-rule="evenodd" d="M14 11.4722C14.8262 12.2117 15.8584 12.7255 17 12.9171V20.5C17 21.3284 16.3284 22 15.5 22C14.6716 22 14 21.3284 14 20.5V11.4722Z" fill="#99EFD0"/>
    <path opacity="0.3" fill-rule="evenodd" clip-rule="evenodd" d="M7 12.9171C8.14157 12.7255 9.17384 12.2117 10 11.4722V20.5C10 21.3284 9.32843 22 8.5 22C7.67157 22 7 21.3284 7 20.5V12.9171Z" fill="#99EFD0"/>
    <path fill-rule="evenodd" clip-rule="evenodd" d="M18 12C20.7614 12 23 9.76142 23 7C23 4.23858 20.7614 2 18 2C15.2386 2 13 4.23858 13 7C13 9.76142 15.2386 12 18 12ZM14 7.25C14 6.83579 14.3358 6.5 14.75 6.5H15.25C15.6642 6.5 16 6.83579 16 7.25C16 7.66421 15.6642 8 15.25 8H14.75C14.3358 8 14 7.66421 14 7.25ZM21 5C20.4477 5 20 5.44772 20 6V8C20 8.55228 20.4477 9 21 9C21.5523 9 22 8.55228 22 8V6C22 5.44772 21.5523 5 21 5Z" fill="#99EFD0"/>
    <path fill-rule="evenodd" clip-rule="evenodd" d="M6 12C8.76142 12 11 9.76142 11 7C11 4.23858 8.76142 2 6 2C3.23858 2 1 4.23858 1 7C1 9.76142 3.23858 12 6 12ZM8 7.25C8 6.83579 8.33579 6.5 8.75 6.5H9.25C9.66421 6.5 10 6.83579 10 7.25C10 7.66421 9.66421 8 9.25 8H8.75C8.33579 8 8 7.66421 8 7.25ZM3 5C2.44772 5 2 5.44772 2 6V8C2 8.55228 2.44772 9 3 9C3.55228 9 4 8.55228 4 8V6C4 5.44772 3.55228 5 3 5Z" fill="#99EFD0"/>
  </symbol>

  <symbol id="lte" width="24" height="24" viewBox="0 0 24 24" fill="none">
    <path opacity="0.3" fill-rule="evenodd" clip-rule="evenodd" d="M7.25619 18.9292L5.97889 20.4681C3.47693 18.3916 2 15.3153 2 12C2 8.68921 3.47282 5.61675 5.96885 3.54016L7.24797 5.07765C5.20393 6.77819 4 9.28973 4 12C4 14.714 5.2073 17.2287 7.25619 18.9292ZM16.7438 18.9292L18.0211 20.4681C20.5231 18.3916 22 15.3153 22 12C22 8.68921 20.5272 5.61675 18.0311 3.54016L16.752 5.07765C18.7961 6.77819 20 9.28973 20 12C20 14.714 18.7927 17.2287 16.7438 18.9292ZM14.1785 15.8599L15.4509 17.4029C17.0529 16.082 18 14.1173 18 12C18 9.88957 17.0591 7.93072 15.4661 6.60961L14.1894 8.14908C15.329 9.09417 16 10.4912 16 12C16 13.5137 15.3245 14.9149 14.1785 15.8599ZM8.5491 17.4029L9.8215 15.8599C8.6755 14.9149 8 13.5137 8 12C8 10.4912 8.67104 9.09417 9.81062 8.14908L8.53389 6.60961C6.94091 7.93072 6 9.88957 6 12C6 14.1173 6.94714 16.082 8.5491 17.4029Z" fill="#99EFD0"/>
    <path fill-rule="evenodd" clip-rule="evenodd" d="M12 14C13.1046 14 14 13.1046 14 12C14 10.8954 13.1046 10 12 10C10.8954 10 10 10.8954 10 12C10 13.1046 10.8954 14 12 14Z" fill="#99EFD0"/>
  </symbol>
</svg>